<svg xmlns="http://www.w3.org/2000/svg" viewBox="0 0 64 64" role="img" aria-label="Google Workspace logo">
  <path d="M57 33c0-1.5-.2-3-.5-4.4H33v8.5h13.5c-.6 3.1-2.3 5.7-4.9 7.5v5.5h7.2C54 45.4 57 39.5 57 33z" fill="#4285F4"/>
  <path d="M33 58c7.2 0 13.2-2.4 17.6-6.5l-7.2-5.5c-2 1.3-4.6 2.1-10.4 2.1-6.8 0-12.6-4.6-14.7-10.8h-7.4v5.7C15.3 51.9 23.5 58 33 58z" fill="#34A853"/>
  <path d="M18.3 37.3c-.5-1.6-.8-3.2-.8-5s.3-3.4.8-5v-5.7h-7.4A25.5 25.5 0 0 0 8 32.3c0 3.8.9 7.4 2.9 10.7l7.4-5.7z" fill="#FBBC05"/>
  <path d="M33 16.5c3.9 0 7.4 1.3 10.1 4l6.8-6.8C45.5 9.7 39.6 7.2 33 7.2c-9.5 0-17.7 6.1-22.1 14.4l7.4 5.7C20.4 21.1 26.2 16.5 33 16.5z" fill="#EA4335"/>
</svg>
