<svg xmlns="http://www.w3.org/2000/svg" viewBox="0 0 96 96" role="img" aria-label="OpenAI logo">
  <rect width="96" height="96" rx="22" fill="#07101C"/>
  <g fill="none" stroke="#F5F7FA" stroke-width="5.5" stroke-linecap="round" stroke-linejoin="round">
    <path d="M48 18c8 0 14 6 14 14v8"/>
    <path d="M64 29c7 4 10 13 6 20l-4 7"/>
    <path d="M70 54c0 8-7 15-15 15h-8"/>
    <path d="M48 78c-8 0-14-6-14-14v-8"/>
    <path d="M32 67c-7-4-10-13-6-20l4-7"/>
    <path d="M26 42c0-8 7-15 15-15h8"/>
    <path d="M37 39l22 13"/>
    <path d="M59 39L37 52"/>
    <path d="M48 29v38"/>
  </g>
</svg>
