<svg xmlns="http://www.w3.org/2000/svg" viewBox="0 0 96 96" role="img" aria-label="Google Workspace logo">
  <rect width="96" height="96" rx="22" fill="#07101C"/>
  <path d="M74 49c0-2-.2-4-.6-5.8H49v11h14c-.6 3.5-2.6 6.5-5.5 8.5v7h9c5.2-4.8 7.5-11.8 7.5-20.7z" fill="#4285F4"/>
  <path d="M49 75c7.4 0 13.6-2.4 18.1-6.6l-9-7c-2.5 1.7-5.7 2.7-9.1 2.7-7 0-13-4.8-15.1-11.2h-9.3v7.2C29 68.9 38.3 75 49 75z" fill="#34A853"/>
  <path d="M33.9 52.9c-.6-1.7-.9-3.5-.9-5.4s.3-3.7.9-5.4v-7.2h-9.3A27 27 0 0022 47.5c0 4.4 1 8.7 2.6 12.5l9.3-7.1z" fill="#FBBC05"/>
  <path d="M49 30.9c4 0 7.6 1.4 10.4 4.1l7.8-7.8C62.5 22.8 56.4 20 49 20c-10.7 0-20 6.1-24.4 15l9.3 7.2c2.1-6.5 8.1-11.3 15.1-11.3z" fill="#EA4335"/>
</svg>
