<svg xmlns="http://www.w3.org/2000/svg" viewBox="0 0 96 96" role="img" aria-label="OpenAI logo">
  <rect width="96" height="96" rx="22" fill="#07101C"/>
  <g fill="none" stroke="#F5F7FA" stroke-width="6" stroke-linecap="round" stroke-linejoin="round">
    <path d="M48 19c8 0 14 6 14 14v6"/>
    <path d="M67 32c7 4 9 13 5 20l-3 5"/>
    <path d="M70 57c0 8-7 14-15 14h-6"/>
    <path d="M48 77c-8 0-14-6-14-14v-6"/>
    <path d="M29 64c-7-4-9-13-5-20l3-5"/>
    <path d="M26 39c0-8 7-14 15-14h6"/>
    <path d="M37 38l22 13M59 38L37 51M48 29v38"/>
  </g>
</svg>
